<?xml version="1.0" encoding="UTF-8" standalone="no"?>
<svg
   xmlns:dc="http://purl.org/dc/elements/1.1/"
   xmlns:cc="http://creativecommons.org/ns#"
   xmlns:rdf="http://www.w3.org/1999/02/22-rdf-syntax-ns#"
   xmlns:svg="http://www.w3.org/2000/svg"
   xmlns="http://www.w3.org/2000/svg"
   xmlns:sodipodi="http://sodipodi.sourceforge.net/DTD/sodipodi-0.dtd"
   xmlns:inkscape="http://www.inkscape.org/namespaces/inkscape"
   inkscape:version="1.0 (4035a4fb49, 2020-05-01)"
   sodipodi:docname="stagehand.svg"
   id="svg851"
   preserveAspectRatio="xMidYMid meet"
   viewBox="0 0 1280.000000 1280.000000"
   height="1280.000000pt"
   width="1280.000000pt"
   version="1.0">
  <defs
     id="defs855" />
  <sodipodi:namedview
     inkscape:current-layer="svg851"
     inkscape:window-maximized="1"
     inkscape:window-y="-8"
     inkscape:window-x="1912"
     inkscape:cy="853.33333"
     inkscape:cx="853.33333"
     inkscape:zoom="0.590625"
     showgrid="false"
     id="namedview853"
     inkscape:window-height="1377"
     inkscape:window-width="2560"
     inkscape:pageshadow="2"
     inkscape:pageopacity="0"
     guidetolerance="10"
     gridtolerance="10"
     objecttolerance="10"
     borderopacity="1"
     bordercolor="#666666"
     pagecolor="#ffffff"
     inkscape:document-rotation="0" />
  <metadata
     id="metadata845">
Created by potrace 1.15, written by Peter Selinger 2001-2017
<rdf:RDF>
  <cc:Work
     rdf:about="">
    <dc:format>image/svg+xml</dc:format>
    <dc:type
       rdf:resource="http://purl.org/dc/dcmitype/StillImage" />
  </cc:Work>
</rdf:RDF>
</metadata>
  <ellipse
     style="fill:#cccccc;stroke:#000000;stroke-width:5.43968;stroke-linecap:round;stroke-linejoin:round;stroke-opacity:1"
     id="path831"
     cx="640"
     cy="639.36511"
     rx="636.19049"
     ry="635.5556"
     inkscape:label="background" />
  <circle
     style="display:inline;fill:#333333;fill-opacity:1;stroke:none;stroke-width:40.8296;stroke-linecap:round;stroke-linejoin:round"
     id="path1093"
     cx="641.16144"
     cy="640"
     r="395.43307"
     inkscape:label="gear circumference" />
  <g
     id="g1370"
     transform="matrix(1.35,0,0,1.35,635.93493,640)"
     inkscape:label="Rendered Gears"
     style="display:inline;fill:#333333;stroke:none">
    <path
       id="path1368"
       d="m 203.57,-46.8479 77.098,-17.7427 4.447,-0.485 89.527,33.1033 v 63.9446 l -89.527,33.1033 -4.447,-0.485 -77.098,-17.7427 -40.019,83.1001 61.942,49.215 3.151,3.175 29.938,90.634 -49.994,39.869 -81.7,-49.355 -2.393,-3.779 L 90.2965,188.366 0.37476,208.891 0.5167,288.004 0,292.447 l -52.1949,79.916 -62.3411,-14.229 -12.352,-94.648 1.462,-4.228 34.4541,-71.217 -72.1121,-57.507 -61.764,49.437 -3.796,2.367 -95.024,9.019 -27.745,-57.612 66.298,-68.6694 4.217,-1.4925 77.161,-17.4659 v -92.2344 l -77.161,-17.4659 -4.217,-1.4925 -66.298,-68.6694 27.745,-57.612 95.024,9.019 3.796,2.367 61.764,49.437 72.1121,-57.507 -34.4541,-71.217 -1.462,-4.228 12.352,-94.648 62.3411,-14.229 52.1949,79.916 0.5167,4.443 -0.14194,79.113 89.92174,20.525 34.1985,-71.341 2.393,-3.779 81.7,-49.355 49.994,39.869 -29.938,90.634 -3.151,3.175 -61.942,49.215 z"
       style="fill:#333333;stroke:none;stroke-width:0.75" />
  </g>
  <g
     id="g1631"
     transform="translate(350.47618,483.80952)"
     inkscape:label="Rendered Gears"
     style="display:none;fill:#333333;fill-opacity:1">
    <path
       id="path1629"
       d="m 132.696,-26.6425 41.544,-8.3411 2.752,-0.2222 47.862,17.1971 v 36.0174 l -47.862,17.1971 -2.752,-0.2222 -41.544,-8.3411 -20.027,48.3488 35.275,23.478 2.102,1.7887 21.684,46.004 -25.468,25.468 -46.004,-21.684 -1.7887,-2.102 -23.478,-35.275 -48.3488,20.027 8.3411,41.544 0.2222,2.752 -17.1971,47.862 h -36.0174 l -17.1971,-47.862 0.2222,-2.752 8.3411,-41.544 -48.3488,-20.027 -23.478,35.275 -1.7887,2.102 -46.004,21.684 -25.468,-25.468 21.684,-46.004 2.102,-1.7887 35.275,-23.478 -20.027,-48.3488 -41.544,8.3411 -2.752,0.2222 -47.862,-17.1971 v -36.0174 l 47.862,-17.1971 2.752,0.2222 41.544,8.3411 20.027,-48.3488 -35.275,-23.478 -2.102,-1.7887 -21.684,-46.004 25.468,-25.468 46.004,21.684 1.7887,2.102 23.478,35.275 48.3488,-20.027 -8.3411,-41.544 -0.2222,-2.752 17.1971,-47.862 h 36.0174 l 17.1971,47.862 -0.2222,2.752 -8.3411,41.544 48.3488,20.027 23.478,-35.275 1.7887,-2.102 46.004,-21.684 25.468,25.468 -21.684,46.004 -2.102,1.7887 -35.275,23.478 z"
       style="fill:#333333;fill-opacity:1;stroke:#000000;stroke-width:0.75" />
  </g>
  <g
     id="g1647"
     transform="translate(882.53965,816.50793)"
     inkscape:label="Rendered Gears"
     style="display:none;fill:#333333;fill-opacity:1">
    <path
       id="path1645"
       d="m 132.696,-26.6425 41.544,-8.3411 2.752,-0.2222 47.862,17.1971 v 36.0174 l -47.862,17.1971 -2.752,-0.2222 -41.544,-8.3411 -20.027,48.3488 35.275,23.478 2.102,1.7887 21.684,46.004 -25.468,25.468 -46.004,-21.684 -1.7887,-2.102 -23.478,-35.275 -48.3488,20.027 8.3411,41.544 0.2222,2.752 -17.1971,47.862 h -36.0174 l -17.1971,-47.862 0.2222,-2.752 8.3411,-41.544 -48.3488,-20.027 -23.478,35.275 -1.7887,2.102 -46.004,21.684 -25.468,-25.468 21.684,-46.004 2.102,-1.7887 35.275,-23.478 -20.027,-48.3488 -41.544,8.3411 -2.752,0.2222 -47.862,-17.1971 v -36.0174 l 47.862,-17.1971 2.752,0.2222 41.544,8.3411 20.027,-48.3488 -35.275,-23.478 -2.102,-1.7887 -21.684,-46.004 25.468,-25.468 46.004,21.684 1.7887,2.102 23.478,35.275 48.3488,-20.027 -8.3411,-41.544 -0.2222,-2.752 17.1971,-47.862 h 36.0174 l 17.1971,47.862 -0.2222,2.752 -8.3411,41.544 48.3488,20.027 23.478,-35.275 1.7887,-2.102 46.004,-21.684 25.468,25.468 -21.684,46.004 -2.102,1.7887 -35.275,23.478 z"
       style="fill:#333333;fill-opacity:1;stroke:#000000;stroke-width:0.75" />
  </g>
  <g
     id="g1665"
     transform="rotate(-25,2111.721,-715.69469)"
     inkscape:label="Rendered Gears"
     style="display:none;fill:#333333;fill-opacity:1">
    <path
       id="path1663"
       d="m 132.696,-26.6425 41.544,-8.3411 2.752,-0.2222 47.862,17.1971 v 36.0174 l -47.862,17.1971 -2.752,-0.2222 -41.544,-8.3411 -20.027,48.3488 35.275,23.478 2.102,1.7887 21.684,46.004 -25.468,25.468 -46.004,-21.684 -1.7887,-2.102 -23.478,-35.275 -48.3488,20.027 8.3411,41.544 0.2222,2.752 -17.1971,47.862 h -36.0174 l -17.1971,-47.862 0.2222,-2.752 8.3411,-41.544 -48.3488,-20.027 -23.478,35.275 -1.7887,2.102 -46.004,21.684 -25.468,-25.468 21.684,-46.004 2.102,-1.7887 35.275,-23.478 -20.027,-48.3488 -41.544,8.3411 -2.752,0.2222 -47.862,-17.1971 v -36.0174 l 47.862,-17.1971 2.752,0.2222 41.544,8.3411 20.027,-48.3488 -35.275,-23.478 -2.102,-1.7887 -21.684,-46.004 25.468,-25.468 46.004,21.684 1.7887,2.102 23.478,35.275 48.3488,-20.027 -8.3411,-41.544 -0.2222,-2.752 17.1971,-47.862 h 36.0174 l 17.1971,47.862 -0.2222,2.752 -8.3411,41.544 48.3488,20.027 23.478,-35.275 1.7887,-2.102 46.004,-21.684 25.468,25.468 -21.684,46.004 -2.102,1.7887 -35.275,23.478 z"
       style="fill:#333333;fill-opacity:1;stroke:#000000;stroke-width:0.75" />
  </g>
</svg>
